# xmcd CD database file
#
# Track frame offsets:
#	150
#	19180
#	37972
#
# Disc length: 748 seconds
#
# Revision: 0
# Processed by: cddbd v1.5.1PL2 Copyright (c) Steve Scherf et al.
# Submitted via: CDex 1.51
#
DISCID=1902ea03
DTITLE=佐野元春 - Beat-titude LIVE!
DYEAR=1995
DGENRE=JPop
TTITLE0=廃墟の街
TTITLE1=ポップ・チルドレン─最新マシンを手にした陽気な子供たち
TTITLE2=自由は積み重ねられていく
EXTD=YEAR: 1995
EXTT0=
EXTT1=
EXTT2=
PLAYORDER=
